<mxfile host="app.diagrams.net" agent="Mozilla/5.0 (Windows NT 10.0; Win64; x64) AppleWebKit/537.36 (KHTML, like Gecko) Chrome/140.0.0.0 Safari/537.36" version="28.2.5">
  <diagram name="Page-1" id="puYUMiB7GAVHk4MBcKgN">
    <mxGraphModel dx="868" dy="439" grid="1" gridSize="10" guides="1" tooltips="1" connect="1" arrows="1" fold="1" page="1" pageScale="1" pageWidth="827" pageHeight="1169" math="0" shadow="0">
      <root>
        <mxCell id="0" />
        <mxCell id="1" parent="0" />
        <mxCell id="Vc-tWVacM7-mpsR8fyfO-3" value="" style="edgeStyle=orthogonalEdgeStyle;rounded=0;orthogonalLoop=1;jettySize=auto;html=1;" edge="1" parent="1" source="Vc-tWVacM7-mpsR8fyfO-1" target="Vc-tWVacM7-mpsR8fyfO-2">
          <mxGeometry relative="1" as="geometry" />
        </mxCell>
        <mxCell id="Vc-tWVacM7-mpsR8fyfO-1" value="Start" style="rounded=1;whiteSpace=wrap;html=1;" vertex="1" parent="1">
          <mxGeometry x="410" y="80" width="120" height="60" as="geometry" />
        </mxCell>
        <mxCell id="Vc-tWVacM7-mpsR8fyfO-5" value="" style="edgeStyle=orthogonalEdgeStyle;rounded=0;orthogonalLoop=1;jettySize=auto;html=1;" edge="1" parent="1" source="Vc-tWVacM7-mpsR8fyfO-2" target="Vc-tWVacM7-mpsR8fyfO-4">
          <mxGeometry relative="1" as="geometry" />
        </mxCell>
        <mxCell id="Vc-tWVacM7-mpsR8fyfO-2" value="n, m" style="shape=parallelogram;perimeter=parallelogramPerimeter;whiteSpace=wrap;html=1;fixedSize=1;" vertex="1" parent="1">
          <mxGeometry x="410" y="180" width="120" height="60" as="geometry" />
        </mxCell>
        <mxCell id="Vc-tWVacM7-mpsR8fyfO-7" value="" style="edgeStyle=orthogonalEdgeStyle;rounded=0;orthogonalLoop=1;jettySize=auto;html=1;" edge="1" parent="1" source="Vc-tWVacM7-mpsR8fyfO-4" target="Vc-tWVacM7-mpsR8fyfO-6">
          <mxGeometry relative="1" as="geometry" />
        </mxCell>
        <mxCell id="Vc-tWVacM7-mpsR8fyfO-4" value="tek_sayi = 0&lt;div&gt;i = n&lt;/div&gt;" style="whiteSpace=wrap;html=1;" vertex="1" parent="1">
          <mxGeometry x="410" y="280" width="120" height="60" as="geometry" />
        </mxCell>
        <mxCell id="Vc-tWVacM7-mpsR8fyfO-9" value="" style="edgeStyle=orthogonalEdgeStyle;rounded=0;orthogonalLoop=1;jettySize=auto;html=1;" edge="1" parent="1" source="Vc-tWVacM7-mpsR8fyfO-6" target="Vc-tWVacM7-mpsR8fyfO-8">
          <mxGeometry relative="1" as="geometry" />
        </mxCell>
        <mxCell id="Vc-tWVacM7-mpsR8fyfO-12" value="TRUE" style="edgeLabel;html=1;align=center;verticalAlign=middle;resizable=0;points=[];" vertex="1" connectable="0" parent="Vc-tWVacM7-mpsR8fyfO-9">
          <mxGeometry x="-0.3894" relative="1" as="geometry">
            <mxPoint as="offset" />
          </mxGeometry>
        </mxCell>
        <mxCell id="Vc-tWVacM7-mpsR8fyfO-23" value="" style="edgeStyle=orthogonalEdgeStyle;rounded=0;orthogonalLoop=1;jettySize=auto;html=1;" edge="1" parent="1" source="Vc-tWVacM7-mpsR8fyfO-6" target="Vc-tWVacM7-mpsR8fyfO-22">
          <mxGeometry relative="1" as="geometry" />
        </mxCell>
        <mxCell id="Vc-tWVacM7-mpsR8fyfO-6" value="i &amp;lt;= m" style="rhombus;whiteSpace=wrap;html=1;" vertex="1" parent="1">
          <mxGeometry x="430" y="380" width="80" height="80" as="geometry" />
        </mxCell>
        <mxCell id="Vc-tWVacM7-mpsR8fyfO-11" value="" style="edgeStyle=orthogonalEdgeStyle;rounded=0;orthogonalLoop=1;jettySize=auto;html=1;" edge="1" parent="1" source="Vc-tWVacM7-mpsR8fyfO-8" target="Vc-tWVacM7-mpsR8fyfO-10">
          <mxGeometry relative="1" as="geometry">
            <Array as="points">
              <mxPoint x="220" y="510" />
            </Array>
          </mxGeometry>
        </mxCell>
        <mxCell id="Vc-tWVacM7-mpsR8fyfO-13" value="TRUE" style="edgeLabel;html=1;align=center;verticalAlign=middle;resizable=0;points=[];" vertex="1" connectable="0" parent="Vc-tWVacM7-mpsR8fyfO-11">
          <mxGeometry x="-0.5184" y="-2" relative="1" as="geometry">
            <mxPoint as="offset" />
          </mxGeometry>
        </mxCell>
        <mxCell id="Vc-tWVacM7-mpsR8fyfO-16" style="edgeStyle=orthogonalEdgeStyle;rounded=0;orthogonalLoop=1;jettySize=auto;html=1;entryX=1;entryY=0.5;entryDx=0;entryDy=0;" edge="1" parent="1" source="Vc-tWVacM7-mpsR8fyfO-8" target="Vc-tWVacM7-mpsR8fyfO-18">
          <mxGeometry relative="1" as="geometry">
            <mxPoint x="420" y="700" as="targetPoint" />
            <Array as="points">
              <mxPoint x="430" y="510" />
              <mxPoint x="430" y="790" />
            </Array>
          </mxGeometry>
        </mxCell>
        <mxCell id="Vc-tWVacM7-mpsR8fyfO-21" value="FALSE" style="edgeLabel;html=1;align=center;verticalAlign=middle;resizable=0;points=[];" vertex="1" connectable="0" parent="Vc-tWVacM7-mpsR8fyfO-16">
          <mxGeometry x="-0.9074" y="3" relative="1" as="geometry">
            <mxPoint as="offset" />
          </mxGeometry>
        </mxCell>
        <mxCell id="Vc-tWVacM7-mpsR8fyfO-8" value="i % 2 != 0" style="rhombus;whiteSpace=wrap;html=1;" vertex="1" parent="1">
          <mxGeometry x="300" y="470" width="80" height="80" as="geometry" />
        </mxCell>
        <mxCell id="Vc-tWVacM7-mpsR8fyfO-19" value="" style="edgeStyle=orthogonalEdgeStyle;rounded=0;orthogonalLoop=1;jettySize=auto;html=1;" edge="1" parent="1" source="Vc-tWVacM7-mpsR8fyfO-10" target="Vc-tWVacM7-mpsR8fyfO-18">
          <mxGeometry relative="1" as="geometry" />
        </mxCell>
        <mxCell id="Vc-tWVacM7-mpsR8fyfO-10" value="tek_sayi = tek_sayi + 1" style="whiteSpace=wrap;html=1;" vertex="1" parent="1">
          <mxGeometry x="190" y="585" width="130" height="60" as="geometry" />
        </mxCell>
        <mxCell id="Vc-tWVacM7-mpsR8fyfO-20" style="edgeStyle=orthogonalEdgeStyle;rounded=0;orthogonalLoop=1;jettySize=auto;html=1;" edge="1" parent="1" source="Vc-tWVacM7-mpsR8fyfO-18">
          <mxGeometry relative="1" as="geometry">
            <mxPoint x="470" y="360" as="targetPoint" />
            <Array as="points">
              <mxPoint x="170" y="790" />
              <mxPoint x="170" y="360" />
            </Array>
          </mxGeometry>
        </mxCell>
        <mxCell id="Vc-tWVacM7-mpsR8fyfO-18" value="i = i + 1" style="whiteSpace=wrap;html=1;" vertex="1" parent="1">
          <mxGeometry x="260" y="760" width="120" height="60" as="geometry" />
        </mxCell>
        <mxCell id="Vc-tWVacM7-mpsR8fyfO-25" value="" style="edgeStyle=orthogonalEdgeStyle;rounded=0;orthogonalLoop=1;jettySize=auto;html=1;" edge="1" parent="1" source="Vc-tWVacM7-mpsR8fyfO-22" target="Vc-tWVacM7-mpsR8fyfO-24">
          <mxGeometry relative="1" as="geometry" />
        </mxCell>
        <mxCell id="Vc-tWVacM7-mpsR8fyfO-22" value="tek_sayi" style="shape=document;whiteSpace=wrap;html=1;boundedLbl=1;" vertex="1" parent="1">
          <mxGeometry x="570" y="510" width="120" height="80" as="geometry" />
        </mxCell>
        <mxCell id="Vc-tWVacM7-mpsR8fyfO-24" value="End" style="rounded=1;whiteSpace=wrap;html=1;" vertex="1" parent="1">
          <mxGeometry x="570" y="680" width="120" height="60" as="geometry" />
        </mxCell>
      </root>
    </mxGraphModel>
  </diagram>
</mxfile>
